<?xml version="1.0" encoding="UTF-8" standalone="no"?>
<svg
   version="1.1"
   id="Capa_1"
   x="0px"
   y="0px"
   width="30"
   height="30"
   viewBox="0 0 150 150"
   xml:space="preserve"
   xmlns="http://www.w3.org/2000/svg"
   xmlns:svg="http://www.w3.org/2000/svg"
   xmlns:rdf="http://www.w3.org/1999/02/22-rdf-syntax-ns#"
   xmlns:cc="http://creativecommons.org/ns#"
   xmlns:dc="http://purl.org/dc/elements/1.1/"><metadata
   id="metadata41"><rdf:RDF><cc:Work
       rdf:about=""><dc:format>image/svg+xml</dc:format><dc:type
         rdf:resource="http://purl.org/dc/dcmitype/StillImage" /></cc:Work></rdf:RDF></metadata><defs
   id="defs39">
	
</defs>

<g
   id="g6"
   transform="translate(0,319.333)">
</g>
<g
   id="g8"
   transform="translate(0,319.333)">
</g>
<g
   id="g10"
   transform="translate(0,319.333)">
</g>
<g
   id="g12"
   transform="translate(0,319.333)">
</g>
<g
   id="g14"
   transform="translate(0,319.333)">
</g>
<g
   id="g16"
   transform="translate(0,319.333)">
</g>
<g
   id="g18"
   transform="translate(0,319.333)">
</g>
<g
   id="g20"
   transform="translate(0,319.333)">
</g>
<g
   id="g22"
   transform="translate(0,319.333)">
</g>
<g
   id="g24"
   transform="translate(0,319.333)">
</g>
<g
   id="g26"
   transform="translate(0,319.333)">
</g>
<g
   id="g28"
   transform="translate(0,319.333)">
</g>
<g
   id="g30"
   transform="translate(0,319.333)">
</g>
<g
   id="g32"
   transform="translate(0,319.333)">
</g>
<g
   id="g34"
   transform="translate(0,319.333)">
</g>
<g
   id="g2675"><path
     d="m 94.337287,31.643118 c -0.879318,0.5474 -1.415066,1.979932 -2.486561,4.122922 -1.071484,2.137164 -6.225142,12.718164 -6.923936,14.68064 -0.716283,1.979921 -1.077321,3.412465 1.059843,4.844998 2.137153,1.415077 6.935588,5.537999 8.368132,6.801671 1.426718,1.252008 1.607243,2.504027 0.553225,4.652832 -1.083146,2.148816 -3.319306,9.078589 -10.58101,17.289501 -5.660276,6.388177 -12.63082,10.703275 -14.767984,11.949469 -2.131338,1.263671 -3.284351,0.128125 -4.344205,-0.937555 -0.960848,-0.960848 -2.492387,-2.148805 -3.744407,-3.226137 -1.240368,-1.077321 -2.119697,-1.432533 -3.546404,-2.148805 -1.42673,-0.70462 -2.667086,-0.349397 -3.744407,0.180525 -1.071495,0.535747 -11.553499,4.827553 -15.822012,6.626961 -4.262677,1.787755 -3.558045,3.57552 -3.558045,4.83337 0,1.25202 -0.17471,2.68456 -0.17471,4.11709 0,1.43253 0.518281,3.76187 2.655445,5.72434 2.137164,1.96246 7.290822,7.51793 17.784467,7.51793 10.505296,0 20.632076,-7.69263 22.052969,-8.76994 1.415066,-1.08315 23.654383,-14.872801 32.191403,-36.716138 8.53119,-21.854978 5.68359,-21.854978 5.32253,-25.79155 -0.36105,-3.948223 -5.15364,-12.718163 -10.12678,-14.500115 -4.996432,-1.793582 -9.276571,-1.793582 -10.167553,-1.252009 z"
     id="path2"
     style="fill:rgb(138, 114, 82);fill-opacity:1;stroke-width:5.82335" /><circle
     style="fill:none;stroke:rgb(138, 114, 82);stroke-width:12.81;stroke-miterlimit:4;stroke-dasharray:none;stroke-opacity:1"
     id="path1336"
     cx="74.999992"
     cy="74.999992"
     r="68.593742" /></g></svg>
